<?xml version="1.0" encoding="utf-8"?>
<!-- Generator: Adobe Illustrator 27.8.1, SVG Export Plug-In . SVG Version: 6.00 Build 0)  -->
<svg version="1.1" id="Camada_1" xmlns="http://www.w3.org/2000/svg" xmlns:xlink="http://www.w3.org/1999/xlink" x="0px" y="0px"
	 viewBox="0 0 1088.5 978.4" style="enable-background:new 0 0 1088.5 978.4;" xml:space="preserve">
<style type="text/css">
	.st0{fill:none;stroke:#000000;stroke-width:0.5421;stroke-linecap:square;stroke-miterlimit:3;}
	.st1{fill:#FFFFFF;}
	.st2{fill:none;stroke:#1D1D80;stroke-width:0.5;stroke-miterlimit:10;}
	.st3{fill:#808080;}
	.st4{enable-background:new    ;}
	.st5{fill:none;}
</style>
<path class="st0" d="M1060.1-1313.5"/>
<path class="st1" d="M879,339.7h-29.4C807.7,199.6,677.9,97.5,524.2,97.5S240.6,199.6,198.7,339.7h-29.4
	C212,183.8,354.7,69.2,524.2,69.2S836.3,183.8,879,339.7z"/>
<path class="st2" d="M512.3,788.6"/>
<path class="st1" d="M888.3,489.7h-28.6c-9.9,63.5-37.3,121.2-77.2,167.9l-30.6-53.1l-15.4-26.7C724,596.6,709,613.6,692,628.5
	c-26.2,22.9-57.2,40.6-91.3,51.3c-24.1,7.6-49.8,11.7-76.4,11.7V591.4h-0.1v-27.8h0.1v-73.9h-56.8V685
	c-96.4-21.9-172.1-98.4-192.8-195.3h-28.2c24.7,130.9,139.7,229.9,277.8,229.9c31.8,0,62.3-5.2,90.9-14.9c9,15.5,18.9,32.7,29,50.2
	c-37.3,14.1-77.7,21.8-120,21.8c-169.7,0-310.3-124.4-335.6-287H160C185.5,668,338.8,805,524.2,805c47.4,0,92.7-9,134.3-25.3
	c37.3,64.7,73.3,127,73.3,127l55.4-32l-71.3-123.5c11.6-7.1,22.9-14.9,33.6-23.2c24.3,42.1,48.6,84.2,72.9,126.3
	c18.4-10.6,36.9-21.3,55.3-31.9l-80.2-139C845.2,630.5,877.7,563.7,888.3,489.7z M701.7,726.7l-28.5-49.4
	c11.7-7.2,22.7-15.3,33.2-24.1c9.6,16.7,19.2,33.4,28.8,50C724.5,711.7,713.3,719.5,701.7,726.7z"/>
<path class="st1" d="M524.3,154.2v185.5h-56.8V187.4C385.8,206,319,263.7,287.9,339.7h-29.2C298.4,231.5,402.3,154.2,524.3,154.2z"
	/>
<rect x="592.7" y="230.8" class="st1" width="28.2" height="108.9"/>
<path class="st1" d="M606.1,489.7c-17,27.3-47.3,45.4-81.8,45.4v-28.2c17.4,0,33.3-6.5,45.4-17.2H606.1z"/>
<path class="st1" d="M677.1,155.3v184.4H649c-0.1-71.7-0.2-156.1-0.2-156.1h-75.3v-28.3H677.1z"/>
<path class="st1" d="M668.3,489.7c-21,59.2-77.5,101.7-144,101.7v-27.8c50.8,0,94.5-30.4,114-73.9H668.3z"/>
<rect x="524.2" y="563.6" class="st3" width="0.1" height="27.8"/>
<g class="st4">
	<path class="st1" d="M145.7,471.4c-7.4,0-14-1.5-20-4.4c-6-2.9-11.2-6.9-15.5-11.8c-4.4-4.9-7.7-10.5-10.1-16.7
		c-2.4-6.2-3.5-12.6-3.5-19.1c0-6.8,1.3-13.4,3.8-19.6c2.5-6.2,6-11.8,10.5-16.6c4.5-4.9,9.7-8.7,15.7-11.6c6-2.8,12.5-4.3,19.6-4.3
		c7.4,0,14,1.5,20,4.5c6,3,11.1,7,15.5,12c4.3,5,7.7,10.6,10,16.8c2.4,6.2,3.5,12.5,3.5,18.9c0,6.8-1.2,13.4-3.7,19.6
		c-2.5,6.2-5.9,11.8-10.4,16.6c-4.5,4.9-9.7,8.7-15.7,11.5C159.3,470,152.8,471.4,145.7,471.4z M145.9,459.7c5.6,0,10.6-1.2,15-3.5
		c4.4-2.3,8.2-5.4,11.3-9.2c3.1-3.9,5.4-8.2,7.1-13c1.6-4.8,2.4-9.7,2.4-14.6c0-5.2-0.9-10.2-2.6-15.1c-1.7-4.9-4.2-9.2-7.4-12.9
		c-3.2-3.8-7-6.7-11.3-9c-4.4-2.2-9.2-3.3-14.5-3.3c-5.6,0-10.6,1.2-15,3.5c-4.4,2.3-8.2,5.4-11.3,9.2c-3.1,3.9-5.5,8.2-7.1,12.9
		c-1.7,4.8-2.5,9.7-2.5,14.7c0,5.2,0.9,10.2,2.6,15.1c1.7,4.9,4.1,9.2,7.3,12.9c3.1,3.8,6.9,6.7,11.3,9
		C135.6,458.6,140.5,459.7,145.9,459.7z M151.8,437.1h13l29.3,33.5h-13L151.8,437.1z"/>
	<path class="st1" d="M256.3,471.4c-8.3,0-15.4-1.4-21-4.3c-5.7-2.8-10.3-6.7-13.7-11.6c-3.4-4.9-5.9-10.4-7.5-16.5
		c-1.6-6.2-2.4-12.5-2.4-19.1v-51.9h13.2v51.9c0,5,0.5,9.9,1.5,14.7c1,4.8,2.7,9,5.1,12.8c2.4,3.8,5.5,6.7,9.6,9c4,2.2,9,3.3,15,3.3
		c6.1,0,11.1-1.1,15.2-3.4c4-2.3,7.2-5.3,9.6-9.1c2.4-3.8,4-8.1,5.1-12.8c1-4.7,1.5-9.5,1.5-14.4v-51.9h13.2v51.9
		c0,6.9-0.8,13.5-2.4,19.7s-4.2,11.7-7.7,16.4c-3.5,4.7-8.1,8.5-13.8,11.2C271.2,470,264.3,471.4,256.3,471.4z"/>
	<path class="st1" d="M324.3,470.7V368.1h13.2v102.6H324.3z"/>
	<path class="st1" d="M355.8,418.5c0-6.3,1.1-12.4,3.3-18.4c2.2-6,5.4-11.5,9.7-16.5c4.3-5,9.5-8.9,15.7-11.8
		c6.2-2.9,13.2-4.4,21-4.4c9.3,0,17.3,2.1,24,6.3c6.7,4.2,11.6,9.6,14.9,16.1l-10.5,6.6c-2.1-4.3-4.7-7.8-7.9-10.3
		c-3.2-2.6-6.6-4.4-10.3-5.4c-3.7-1.1-7.3-1.6-10.8-1.6c-5.8,0-10.9,1.2-15.4,3.5c-4.5,2.3-8.2,5.4-11.3,9.2
		c-3,3.9-5.3,8.2-6.8,12.9c-1.5,4.8-2.3,9.6-2.3,14.4c0,5.3,0.9,10.4,2.7,15.3c1.8,4.9,4.3,9.2,7.6,13s7.1,6.7,11.5,9
		c4.4,2.2,9.2,3.3,14.4,3.3c3.6,0,7.4-0.6,11.2-1.9c3.8-1.3,7.4-3.2,10.7-5.9c3.3-2.6,6-6.1,7.9-10.3l11,5.9c-2.2,5.1-5.5,9.4-10,13
		c-4.5,3.6-9.5,6.3-15.1,8.1c-5.5,1.8-11,2.7-16.4,2.7c-7.2,0-13.7-1.5-19.7-4.6c-6-3-11.2-7.1-15.5-12.1c-4.4-5.1-7.8-10.7-10.2-17
		C357,431.3,355.8,424.9,355.8,418.5z"/>
	<path class="st1" d="M462.9,470.7V368.1h13.2v56.7l53.9-56.9h14.3l-41.9,45.3l44.3,57.4h-14.9L494,421l-17.8,18.2v31.4H462.9z"/>
	<path class="st1" d="M583,454.5c1.9,1.3,4.4,2.4,7.7,3.5c3.3,1.1,7.2,1.7,11.7,1.7c4.6,0,8.4-0.7,11.3-2.2c2.9-1.5,5.2-3.7,6.8-6.7
		c1.6-3,2.6-6.8,3.2-11.5c0.6-4.7,0.9-10.2,0.9-16.6v-54.5h13.2v51.7c0,7.5-0.4,14.5-1.2,20.8c-0.8,6.3-2.4,11.8-4.7,16.4
		c-2.4,4.6-5.9,8.2-10.5,10.7c-4.7,2.5-10.9,3.7-18.6,3.7c-4.9,0-9.2-0.5-13-1.6c-3.7-1.1-7.2-2.6-10.3-4.8L583,454.5z"/>
	<path class="st1" d="M704.2,471.4c-7.4,0-14-1.4-20-4.3c-6-2.9-11.2-6.8-15.5-11.8c-4.4-5-7.7-10.5-10.1-16.8
		c-2.4-6.2-3.5-12.6-3.5-19.1c0-6.8,1.3-13.4,3.8-19.6c2.5-6.2,6-11.8,10.5-16.6c4.5-4.9,9.7-8.7,15.7-11.6c6-2.8,12.5-4.3,19.6-4.3
		c7.4,0,14,1.5,20,4.5c6,3,11.1,7,15.5,12c4.3,5,7.7,10.6,10,16.8c2.4,6.2,3.5,12.5,3.5,18.9c0,6.8-1.2,13.4-3.7,19.6
		c-2.5,6.2-5.9,11.8-10.4,16.6c-4.5,4.9-9.7,8.7-15.7,11.5C717.8,470,711.2,471.4,704.2,471.4z M668.4,419.4
		c0,5.2,0.9,10.2,2.6,15.1c1.7,4.9,4.1,9.2,7.3,12.9c3.1,3.8,6.9,6.7,11.3,9c4.4,2.2,9.3,3.3,14.7,3.3c5.6,0,10.6-1.2,15-3.5
		c4.4-2.3,8.2-5.4,11.3-9.2c3.1-3.9,5.4-8.2,7.1-13c1.6-4.8,2.4-9.7,2.4-14.6c0-5.2-0.9-10.2-2.6-15c-1.7-4.8-4.2-9.1-7.4-12.9
		c-3.2-3.8-7-6.8-11.3-9c-4.4-2.2-9.2-3.3-14.5-3.3c-5.6,0-10.6,1.1-15,3.4c-4.4,2.3-8.2,5.3-11.3,9.2c-3.1,3.9-5.5,8.2-7.1,12.9
		C669.2,409.5,668.4,414.4,668.4,419.4z"/>
	<path class="st1" d="M852.1,444.2c0,5.3-1.4,9.9-4.1,13.9c-2.7,4-6.5,7-11.1,9.2c-4.7,2.2-9.8,3.3-15.4,3.3h-49.6V368.1h52
		c4.9,0,9.1,1.3,12.7,3.8c3.6,2.6,6.3,5.8,8.2,9.8c1.9,4,2.9,8.2,2.9,12.5c0,5-1.3,9.7-3.9,14.1c-2.6,4.4-6.3,7.6-11.1,9.8
		c6,1.7,10.7,4.9,14.2,9.6C850.3,432.3,852.1,437.9,852.1,444.2z M785.1,379.3v34.2h33.3c3.1,0,5.9-0.8,8.3-2.3
		c2.4-1.5,4.3-3.6,5.7-6.2c1.4-2.6,2.1-5.4,2.1-8.5c0-3.3-0.7-6.2-2-8.7c-1.3-2.6-3.1-4.6-5.4-6.1c-2.3-1.5-4.9-2.3-7.9-2.3H785.1z
		 M838.7,441.9c0-3.2-0.7-6.1-2.1-8.8c-1.4-2.7-3.3-4.9-5.7-6.5c-2.4-1.6-5.2-2.5-8.3-2.5h-37.4v35.3h36.4c3.2,0,6.2-0.8,8.8-2.5
		c2.6-1.6,4.7-3.8,6.2-6.4C837.9,447.9,838.7,445,838.7,441.9z"/>
	<path class="st1" d="M932,389.6c-1.2-1.3-2.7-2.6-4.7-3.9c-2-1.3-4.2-2.4-6.6-3.4c-2.5-1-5.1-1.8-8-2.5c-2.9-0.6-5.9-0.9-9.1-0.9
		c-8,0-14,1.5-17.8,4.5c-3.8,3-5.7,7.1-5.7,12.2c0,3.6,1,6.5,2.9,8.6c2,2.1,5,3.8,9.1,5.2c4.1,1.3,9.2,2.7,15.5,4.2
		c7.3,1.5,13.5,3.4,18.8,5.6s9.4,5.2,12.2,8.9c2.8,3.7,4.3,8.6,4.3,14.8c0,4.9-1,9.1-2.9,12.7c-1.9,3.6-4.6,6.6-8,8.9
		c-3.4,2.4-7.5,4.1-12.1,5.2c-4.6,1.1-9.6,1.7-15,1.7c-5.3,0-10.5-0.6-15.5-1.7c-5.1-1.1-9.8-2.7-14.4-4.8
		c-4.5-2.1-8.7-4.8-12.7-7.9l6.3-11c1.6,1.6,3.6,3.3,6.1,4.8c2.5,1.6,5.3,3.1,8.5,4.4c3.2,1.4,6.6,2.4,10.4,3.3
		c3.7,0.8,7.6,1.2,11.5,1.2c7.5,0,13.2-1.3,17.4-4c4.1-2.6,6.2-6.5,6.2-11.6c0-3.8-1.2-6.9-3.5-9.2c-2.3-2.3-5.7-4.2-10.2-5.8
		c-4.5-1.5-10-3.1-16.5-4.6c-7.1-1.7-13-3.6-17.8-5.7c-4.8-2.1-8.4-4.8-10.8-8.1c-2.4-3.4-3.6-7.7-3.6-13.1c0-6.5,1.6-12.1,4.9-16.6
		s7.7-7.9,13.4-10.2c5.7-2.3,12.1-3.5,19.3-3.5c4.7,0,9.1,0.5,13.2,1.4c4.1,1,7.9,2.3,11.4,4s6.8,3.8,9.7,6.2L932,389.6z"/>
</g>
<polyline class="st5" points="672,422.1 672,426.4 980.5,426.4 980.5,422.1 "/>
</svg>
